<svg width="24" height="24" viewBox="0 0 24 24" fill="none" xmlns="http://www.w3.org/2000/svg">
<path fill-rule="evenodd" clip-rule="evenodd" d="M11.3195 22H6.43349C3.98949 22 2.00049 20.011 2.00049 17.565L2.00049 6.436C2.00049 3.99 3.98949 2 6.43349 2L11.3085 2C13.7545 2 15.7445 3.99 15.7445 6.436V7.368C15.7445 7.782 15.4085 8.118 14.9945 8.118C14.5805 8.118 14.2445 7.782 14.2445 7.368V6.436C14.2445 4.816 12.9275 3.5 11.3085 3.5L6.43349 3.5C4.81649 3.5 3.50049 4.816 3.50049 6.436L3.50049 17.565C3.50049 19.184 4.81649 20.5 6.43349 20.5H11.3195C12.9315 20.5 14.2445 19.188 14.2445 17.576V16.633C14.2445 16.219 14.5805 15.883 14.9945 15.883C15.4085 15.883 15.7445 16.219 15.7445 16.633V17.576C15.7445 20.016 13.7585 22 11.3195 22Z" fill="black"/>
<mask id="mask0_71_17978" style="mask-type:luminance" maskUnits="userSpaceOnUse" x="8" y="11" width="15" height="2">
<path fill-rule="evenodd" clip-rule="evenodd" d="M8.99609 11.25L22.537 11.25V12.75L8.99609 12.75V11.25Z" fill="white"/>
</mask>
<g mask="url(#mask0_71_17978)">
<path fill-rule="evenodd" clip-rule="evenodd" d="M21.7871 12.75L9.74609 12.75C9.33209 12.75 8.99609 12.414 8.99609 12C8.99609 11.586 9.33209 11.25 9.74609 11.25L21.7871 11.25C22.2011 11.25 22.5371 11.586 22.5371 12C22.5371 12.414 22.2011 12.75 21.7871 12.75Z" fill="black"/>
</g>
<mask id="mask1_71_17978" style="mask-type:luminance" maskUnits="userSpaceOnUse" x="18" y="8" width="5" height="8">
<path fill-rule="evenodd" clip-rule="evenodd" d="M18.1099 8.33545H22.5372V15.6662H18.1099V8.33545Z" fill="white"/>
</mask>
<g mask="url(#mask1_71_17978)">
<path fill-rule="evenodd" clip-rule="evenodd" d="M18.8596 15.6662C18.6676 15.6662 18.4746 15.5932 18.3286 15.4452C18.0366 15.1512 18.0376 14.6772 18.3306 14.3852L20.7246 12.0002L18.3306 9.6162C18.0376 9.3242 18.0356 8.8502 18.3286 8.5562C18.6206 8.2622 19.0946 8.2622 19.3886 8.5542L22.3166 11.4692C22.4586 11.6092 22.5376 11.8012 22.5376 12.0002C22.5376 12.1992 22.4586 12.3912 22.3166 12.5312L19.3886 15.4472C19.2426 15.5932 19.0506 15.6662 18.8596 15.6662Z" fill="black"/>
</g>
</svg>
