<svg width="24" height="24" viewBox="0 0 24 24" fill="none" xmlns="http://www.w3.org/2000/svg">
<path fill-rule="evenodd" clip-rule="evenodd" d="M15.791 12.75L3.75 12.75C3.336 12.75 3 12.414 3 12C3 11.586 3.336 11.25 3.75 11.25L15.791 11.25C16.205 11.25 16.541 11.586 16.541 12C16.541 12.414 16.205 12.75 15.791 12.75Z" fill="black"/>
<path fill-rule="evenodd" clip-rule="evenodd" d="M12.8635 15.6652C12.6715 15.6652 12.4785 15.5922 12.3325 15.4442C12.0395 15.1502 12.0415 14.6762 12.3345 14.3842L14.7285 12.0002L12.3345 9.61522C12.0415 9.32322 12.0395 8.84922 12.3325 8.55522C12.6255 8.26122 13.0995 8.26122 13.3925 8.55322L16.3215 11.4692C16.4635 11.6092 16.5425 11.8012 16.5425 12.0002C16.5425 12.1992 16.4635 12.3912 16.3215 12.5312L13.3925 15.4462C13.2465 15.5922 13.0545 15.6652 12.8635 15.6652Z" fill="black"/>
<path fill-rule="evenodd" clip-rule="evenodd" d="M17.0419 22H12.1569C9.71791 22 7.73291 20.015 7.73291 17.575V16.633C7.73291 16.219 8.06891 15.883 8.48291 15.883C8.89691 15.883 9.23291 16.219 9.23291 16.633V17.575C9.23291 19.187 10.5449 20.5 12.1569 20.5H17.0419C18.6609 20.5 19.9779 19.184 19.9779 17.564V6.425C19.9779 4.813 18.6649 3.5 17.0529 3.5L12.1679 3.5C10.5499 3.5 9.23291 4.816 9.23291 6.434V7.367C9.23291 7.781 8.89691 8.117 8.48291 8.117C8.06891 8.117 7.73291 7.781 7.73291 7.367V6.434C7.73291 3.989 9.72291 2 12.1679 2L17.0529 2C19.4919 2 21.4779 3.985 21.4779 6.425V17.564C21.4779 20.01 19.4869 22 17.0419 22Z" fill="black"/>
</svg>
