<svg width="23" height="29" viewBox="0 0 23 29" fill="none" xmlns="http://www.w3.org/2000/svg">
<path fill-rule="evenodd" clip-rule="evenodd" d="M22.3108 7.77009C22.3108 7.76423 22.3155 7.75948 22.3213 7.75948C22.3318 7.75948 22.3359 7.74591 22.3272 7.74008L22.3151 7.73191C22.3124 7.7301 22.3108 7.72706 22.3108 7.72381C22.3108 7.71842 22.3064 7.71405 22.301 7.71405L22.2937 7.71405C22.2903 7.71405 22.287 7.71304 22.2842 7.71115L11.8178 0.673308C11.6729 0.575829 11.4835 0.575829 11.3386 0.673308L0.880961 7.70524C0.872426 7.71098 0.86238 7.71404 0.852103 7.71404L0.845616 7.71404C0.820586 7.71404 0.800295 7.73439 0.800295 7.75948L0.800293 22.566C0.800293 22.7175 0.87958 22.8579 1.00916 22.9359L10.904 28.8881C11.1907 29.0606 11.5555 28.8535 11.5555 28.5182L11.5555 23.2415C11.5555 23.0033 11.7481 22.8102 11.9857 22.8102L21.8806 22.8102C22.1182 22.8102 22.3108 22.6171 22.3108 22.3789L22.3108 7.77009ZM16.0663 9.27276C15.8955 9.02278 15.5275 9.02278 15.3566 9.27276L14.2807 10.8466C14.2248 10.9285 14.1424 10.9885 14.0475 11.0165L12.222 11.556C11.9321 11.6417 11.8184 11.9926 12.0027 12.2328L13.1633 13.745C13.2236 13.8236 13.2551 13.9207 13.2523 14.0199L13.2 15.9272C13.1917 16.2301 13.4894 16.4469 13.7742 16.3454L15.5673 15.7061C15.6606 15.6729 15.7624 15.6729 15.8556 15.7061L17.6487 16.3454C17.9335 16.4469 18.2312 16.2301 18.2229 15.9272L18.1706 14.0199C18.1679 13.9207 18.1993 13.8236 18.2597 13.745L19.4202 12.2328C19.6045 11.9926 19.4908 11.6417 19.2009 11.556L17.3754 11.0165C17.2805 10.9885 17.1981 10.9285 17.1422 10.8466L16.0663 9.27276Z" fill="url(#paint0_linear_160_1066)"/>
<defs>
<linearGradient id="paint0_linear_160_1066" x1="0.800302" y1="8.04045" x2="11.5913" y2="22.5709" gradientUnits="userSpaceOnUse">
<stop stop-color="#8098F9"/>
<stop offset="1" stop-color="#6172F3"/>
</linearGradient>
</defs>
</svg>
