<svg width="24" height="24" viewBox="0 0 24 24" fill="none" xmlns="http://www.w3.org/2000/svg">
<path fill-rule="evenodd" clip-rule="evenodd" d="M12 3.5C7.313 3.5 3.5 7.313 3.5 12C3.5 16.687 7.313 20.5 12 20.5C16.687 20.5 20.5 16.687 20.5 12C20.5 7.313 16.687 3.5 12 3.5ZM12 22C6.486 22 2 17.514 2 12C2 6.486 6.486 2 12 2C17.514 2 22 6.486 22 12C22 17.514 17.514 22 12 22Z" fill="black"/>
<path d="M14.2197 8.21967C14.5126 7.92678 14.9874 7.92678 15.2803 8.21967C15.5466 8.48594 15.5708 8.9026 15.3529 9.19621L15.2803 9.28033L9.28033 15.2803C8.98744 15.5732 8.51256 15.5732 8.21967 15.2803C7.9534 15.0141 7.9292 14.5974 8.14705 14.3038L8.21967 14.2197L14.2197 8.21967Z" fill="black"/>
<path d="M8.21967 8.21967C8.48594 7.9534 8.9026 7.9292 9.19621 8.14705L9.28033 8.21967L15.2803 14.2197C15.5732 14.5126 15.5732 14.9874 15.2803 15.2803C15.0141 15.5466 14.5974 15.5708 14.3038 15.3529L14.2197 15.2803L8.21967 9.28033C7.92678 8.98744 7.92678 8.51256 8.21967 8.21967Z" fill="black"/>
</svg>
