<svg width="82" height="17" viewBox="0 0 82 17" fill="none" xmlns="http://www.w3.org/2000/svg">
<path fill-rule="evenodd" clip-rule="evenodd" d="M0.399902 0.738346L0.399902 8.11835L8.2299 8.11835L8.2299 6.96635L11.1819 6.96635L11.1819 8.56835L13.5579 8.56835L13.5579 0.0723452L11.1819 0.0723453L11.1819 2.14235L8.2299 2.14235L8.2299 0.738346L5.9079 0.738346L5.9079 2.68235L2.7579 2.68235L2.7579 0.738346L0.399902 0.738346ZM11.1819 5.16635L8.2299 5.16635L8.2299 3.94235L11.1819 3.94235L11.1819 5.16635ZM2.7579 6.26435L2.7579 4.46435L5.9079 4.46435L5.9079 6.26435L2.7579 6.26435ZM2.6499 16.4523L14.0259 16.4523L14.0259 14.5983L4.9899 14.5983L4.9899 13.6263L13.5579 13.6263L13.5579 9.19835L2.6139 9.19835L2.6139 11.0343L11.1999 11.0343L11.1999 11.9163L2.6499 11.9163L2.6499 16.4523ZM16.9585 8.11835L16.9585 0.738345L19.3165 0.738345L19.3165 2.68235L22.4665 2.68235L22.4665 0.738345L24.7885 0.738345L24.7885 2.14235L27.7405 2.14235L27.7405 0.0723445L30.1165 0.0723444L30.1165 8.56835L27.7405 8.56835L27.7405 6.96635L24.7885 6.96635L24.7885 8.11835L16.9585 8.11835ZM24.7885 5.16635L27.7405 5.16635L27.7405 3.94235L24.7885 3.94235L24.7885 5.16635ZM19.3165 4.46435L19.3165 6.26435L22.4665 6.26435L22.4665 4.46434L19.3165 4.46435ZM30.5845 16.4523L19.2085 16.4523L19.2085 11.9163L27.7585 11.9163L27.7585 11.0343L19.1725 11.0343L19.1725 9.19835L30.1165 9.19835L30.1165 13.6263L21.5485 13.6263L21.5485 14.5983L30.5845 14.5983L30.5845 16.4523ZM34.5251 0.68439L34.5251 8.02839L46.0451 8.02839L46.0451 0.684391L43.7051 0.68439L43.7051 2.57439L36.8831 2.57439L36.8831 0.68439L34.5251 0.68439ZM36.8831 6.13839L36.8831 4.42839L43.7051 4.42839L43.7051 6.13839L36.8831 6.13839ZM41.4551 16.6504L41.4551 11.4844L47.8271 11.4844L47.8271 9.59439L32.8151 9.59439L32.8151 11.4844L39.0791 11.4844L39.0791 16.6504L41.4551 16.6504ZM64.3857 9.73835L49.3917 9.73835L49.3917 7.84835L55.6917 7.84835L55.6917 6.48035L51.2097 6.48035L51.2097 0.75635L62.5857 0.756351L62.5857 2.64635L53.5677 2.64635L53.5677 4.59035L62.6757 4.59035L62.6757 6.48035L58.0677 6.48035L58.0677 7.84835L64.3857 7.84835L64.3857 9.73835ZM56.8257 10.5484C60.4077 10.5484 62.5857 11.6464 62.5857 13.6084C62.5857 15.5524 60.4077 16.6504 56.8257 16.6504C53.2437 16.6504 51.0837 15.5524 51.0837 13.6084C51.0837 11.6464 53.2437 10.5484 56.8257 10.5484ZM56.8257 14.8504C59.0757 14.8504 60.1737 14.4724 60.1737 13.6084C60.1737 12.7624 59.0577 12.3484 56.8257 12.3484C54.5937 12.3484 53.4777 12.7624 53.4777 13.6084C53.4777 14.4724 54.5757 14.8504 56.8257 14.8504ZM81.1782 6.82244L78.9822 6.82244L78.9822 12.1864L76.6062 12.1864L76.6062 0.05444L78.9822 0.0544399L78.9822 4.86044L81.1782 4.86044L81.1782 6.82244ZM74.6262 9.77444C72.8262 9.18044 71.6022 8.01044 70.8822 6.49844C70.1442 8.15444 68.8302 9.45044 66.9402 10.0804L65.6802 8.22644C68.4702 7.30844 69.6402 5.09444 69.6402 2.84444L69.6402 1.06244L72.0522 1.06244L72.0522 2.86244C72.0522 4.96844 73.1682 7.05644 75.8502 7.92044L74.6262 9.77444ZM79.5582 14.4544L79.5582 16.3444L68.3082 16.3444L68.3082 11.0344L70.6842 11.0344L70.6842 14.4544L79.5582 14.4544Z" fill="#444CE7"/>
</svg>
