<svg width="46" height="59" viewBox="0 0 46 59" fill="none" xmlns="http://www.w3.org/2000/svg">
<path d="M45.0228 15.063L45.0248 15.06L45.0228 15.063ZM45.0228 15.063L44.9959 15.1029L45.0228 15.063ZM1.29993 45.5523L1.29993 15.383L22.7409 0.965588L22.4619 0.550668L22.7409 0.965586C22.8702 0.878659 23.0388 0.878659 23.1681 0.965586L44.5159 15.3204V45.1677C44.5159 45.3825 44.3426 45.5543 44.1316 45.5543L23.7922 45.5543C23.0265 45.5543 22.4079 46.1763 22.4079 46.9409L22.4079 57.7874C22.4079 58.0899 22.0806 58.2722 21.8264 58.1192L1.487 45.8841C1.37132 45.8145 1.29993 45.6887 1.29993 45.5523Z" fill="#444CE7" stroke="#3538CD"/>
</svg>
