<svg width="16" height="16" viewBox="0 0 16 16" fill="none" xmlns="http://www.w3.org/2000/svg">
<path d="M13.3334 6.93333C13.3334 9.33156 10.1265 13.0612 8.68618 14.6155C8.31208 15.0192 7.68796 15.0192 7.31386 14.6155C5.87349 13.0612 2.66669 9.33156 2.66669 6.93333C2.66669 3.84054 5.0545 1.33333 8.00002 1.33333C10.9456 1.33333 13.3334 3.84054 13.3334 6.93333Z" fill="#B7C0CD"/>
<path d="M8 8.66667C9.1046 8.66667 10 7.77127 10 6.66667C10 5.56211 9.1046 4.66667 8 4.66667C6.8954 4.66667 6 5.56211 6 6.66667C6 7.77127 6.8954 8.66667 8 8.66667Z" fill="white"/>
</svg>
