<svg width="80" height="80" viewBox="0 0 80 80" fill="none" xmlns="http://www.w3.org/2000/svg">
<circle cx="38.7745" cy="36.2745" r="32.7745" stroke="#EBEBEB" stroke-width="6" stroke-linecap="round"/>
<path d="M60 61.5L74 75.5" stroke="#EBEBEB" stroke-width="6" stroke-linecap="round"/>
<path d="M35.3848 42.2927C35.4271 36.9522 36.8224 35.2725 39.3594 33.679C41.1776 32.4731 42.5729 31.138 42.5729 29.1568C42.5729 27.0034 40.9239 25.5821 38.8943 25.5821C37.7954 25.5821 36.7483 25.9903 36.0173 26.7848C34.9147 27.9834 33.712 29.4583 32.0834 29.4583C30.391 29.4583 28.9632 28.0335 29.4849 26.4236C30.7822 22.42 34.5218 20.5 38.9366 20.5C44.814 20.5 49 23.644 49 28.9415C49 32.4731 47.2241 34.7557 44.4334 36.4354C42.0655 37.8997 41.0085 39.2779 40.9662 42.2927C40.9662 42.5544 40.7541 42.7665 40.4924 42.7665H35.8585C35.5969 42.7665 35.3848 42.5544 35.3848 42.2927ZM38.3023 52.5C36.315 52.5 34.7082 50.8634 34.7505 48.8822C34.7082 46.9011 36.315 45.3075 38.3023 45.3075C40.1628 45.3075 41.8118 46.9011 41.8118 48.8822C41.8118 50.8634 40.1628 52.5 38.3023 52.5Z" fill="#DDDDDD"/>
</svg>
