<svg width="24" height="24" viewBox="0 0 24 24" fill="none" xmlns="http://www.w3.org/2000/svg">
<path d="M13.5258 17.6163L12.253 18.8891C11.4091 19.733 10.2273 20.1699 8.96751 20.1036C7.70774 20.0372 6.47322 19.4732 5.53553 18.5355C4.59785 17.5979 4.03382 16.3633 3.96751 15.1036C3.90121 13.8438 4.33807 12.6619 5.18198 11.818L6.45477 10.5452M10.2731 6.72685L11.5459 5.45406C12.3899 4.61015 13.5717 4.17329 14.8315 4.23959C16.0913 4.3059 17.3258 4.86993 18.2635 5.80761C19.2011 6.74529 19.7652 7.97981 19.8315 9.23959C19.8978 10.4994 19.4609 11.6812 18.617 12.5251L17.3442 13.7979M9.35391 14.7172L14.4451 9.62599" stroke="#475467" stroke-width="2" stroke-linecap="round" stroke-linejoin="round"/>
</svg>
