<svg width="20" height="20" viewBox="0 0 20 20" fill="none" xmlns="http://www.w3.org/2000/svg">
<path fill-rule="evenodd" clip-rule="evenodd" d="M18 4C18 5.10457 17.1046 6 16 6C14.8954 6 14 5.10457 14 4C14 2.89543 14.8954 2 16 2C17.1046 2 18 2.89543 18 4ZM20 4C20 6.20914 18.2091 8 16 8C14.672 8 13.4952 7.35286 12.7677 6.35674L11.4334 7.24626L7.97516 9.55174C7.99157 9.6989 8 9.84846 8 10C8 10.1515 7.99157 10.3011 7.97516 10.4483L11.4334 12.7537L12.7677 13.6433C13.4952 12.6471 14.672 12 16 12C18.2091 12 20 13.7909 20 16C20 18.2091 18.2091 20 16 20C13.7909 20 12 18.2091 12 16C12 15.8485 12.0084 15.6989 12.0248 15.5517L11.8373 15.4267L10.324 14.4178L7.23234 12.3567C6.50481 13.3529 5.32798 14 4 14C1.79086 14 0 12.2091 0 10C0 7.79086 1.79086 6 4 6C5.32798 6 6.50481 6.64714 7.23234 7.64326L10.324 5.58216L11.8373 4.57328L12.0248 4.44826C12.0084 4.3011 12 4.15154 12 4C12 1.79086 13.7909 0 16 0C18.2091 0 20 1.79086 20 4ZM16 18C17.1046 18 18 17.1046 18 16C18 14.8954 17.1046 14 16 14C14.8954 14 14 14.8954 14 16C14 17.1046 14.8954 18 16 18ZM6 10C6 11.1046 5.10457 12 4 12C2.89543 12 2 11.1046 2 10C2 8.89543 2.89543 8 4 8C5.10457 8 6 8.89543 6 10Z" fill="black"/>
</svg>
