<svg width="24" height="24" viewBox="0 0 24 24" fill="none" xmlns="http://www.w3.org/2000/svg">
<path fill-rule="evenodd" clip-rule="evenodd" d="M6.2318 8.35984C5.87824 8.78412 5.93556 9.41468 6.35984 9.76825C6.78412 10.1218 7.41468 10.0645 7.76825 9.64021L11 5.76211V15C11 15.5523 11.4477 16 12 16C12.5523 16 13 15.5523 13 15V5.76205L14.6693 7.76521L15.8021 9.12458L16.1195 9.50544L16.2031 9.60579L16.2246 9.63151L16.23 9.63802L16.2313 9.63966L16.2317 9.64007L16.2318 9.64018L17 9.00003L16.2318 9.64021C16.5854 10.0645 17.2159 10.1218 17.6402 9.76825C18.0645 9.41468 18.1218 8.78412 17.7682 8.35984L17 9.00003L17.7682 8.35981L17.7681 8.3597L17.7678 8.35929L17.7664 8.35766L17.761 8.35114L17.7396 8.32542L17.6559 8.22508L17.3386 7.84422L16.2057 6.48484L12.7809 2.37508C12.7581 2.3466 12.7335 2.31915 12.7072 2.29287C12.6252 2.21073 12.5318 2.14552 12.4316 2.09769C12.3323 2.0501 12.2239 2.01843 12.1098 2.00596C12.0733 2.00196 12.0366 1.99998 12 2C12 2 12 2 12 2C11.8392 2 11.6873 2.03796 11.5526 2.1054C11.4584 2.15245 11.3705 2.21506 11.2929 2.29287C11.2665 2.31914 11.242 2.34659 11.2191 2.37506L6.2318 8.35984ZM3 12C3.55228 12 4 12.4477 4 13V19.5852V19.5852C4 19.589 3.99998 19.6699 4.15327 19.7843C4.3071 19.8992 4.56595 20 4.89474 20H19.1053C19.4341 20 19.6929 19.8992 19.8467 19.7843C20 19.6699 20 19.589 20 19.5852V19.5852V13C20 12.4477 20.4477 12 21 12C21.5523 12 22 12.4477 22 13V19.5852C22 20.3631 21.5754 20.9895 21.0434 21.3869C20.5114 21.7841 19.8229 22 19.1053 22H4.89474C4.17709 22 3.48858 21.7841 2.95664 21.3869C2.42455 20.9895 2 20.3631 2 19.5852V13C2 12.4477 2.44772 12 3 12Z" fill="black"/>
</svg>
