<svg width="20" height="20" viewBox="0 0 20 20" fill="none" xmlns="http://www.w3.org/2000/svg">
<path d="M16.6667 8.66667C16.6667 11.7633 12.3894 16.6359 10.687 18.4526C10.3107 18.8542 9.68941 18.8542 9.31308 18.4526C7.61069 16.6359 3.33337 11.7633 3.33337 8.66667C3.33337 4.80068 6.31814 1.66667 10 1.66667C13.682 1.66667 16.6667 4.80068 16.6667 8.66667Z" fill="#B7C0CD"/>
<path d="M10 10.8333C11.3807 10.8333 12.5 9.71408 12.5 8.33333C12.5 6.95263 11.3807 5.83333 10 5.83333C8.61925 5.83333 7.5 6.95263 7.5 8.33333C7.5 9.71408 8.61925 10.8333 10 10.8333Z" fill="white"/>
</svg>
