<svg width="24" height="24" viewBox="0 0 24 24" fill="none" xmlns="http://www.w3.org/2000/svg">
<path fill-rule="evenodd" clip-rule="evenodd" d="M12.2468 22.0001C10.8918 22.0001 9.57084 21.9852 8.26384 21.9581C6.59184 21.9251 5.43484 20.8411 5.24584 19.1291C4.93084 16.2891 4.39184 9.59515 4.38684 9.52815C4.35284 9.11515 4.66084 8.75315 5.07384 8.72015C5.48084 8.70915 5.84884 8.99515 5.88184 9.40715C5.88684 9.47515 6.42484 16.1461 6.73684 18.9641C6.84384 19.9371 7.36884 20.4391 8.29484 20.4581C10.7948 20.5112 13.3458 20.5141 16.0958 20.4641C17.0798 20.4451 17.6118 19.9531 17.7218 18.9571C18.0318 16.1631 18.5718 9.47515 18.5778 9.40715C18.6108 8.99515 18.9758 8.70715 19.3848 8.72015C19.7978 8.75415 20.1058 9.11515 20.0728 9.52815C20.0668 9.59615 19.5248 16.3071 19.2128 19.1221C19.0188 20.8691 17.8648 21.9321 16.1228 21.9641C14.7898 21.9871 13.5038 22.0001 12.2468 22.0001Z" fill="black"/>
<path fill-rule="evenodd" clip-rule="evenodd" d="M20.708 6.98926L3.75 6.98926C3.336 6.98926 3 6.65326 3 6.23926C3 5.82526 3.336 5.48926 3.75 5.48926L20.708 5.48926C21.122 5.48926 21.458 5.82526 21.458 6.23926C21.458 6.65326 21.122 6.98926 20.708 6.98926Z" fill="black"/>
<path fill-rule="evenodd" clip-rule="evenodd" d="M17.4406 6.98949C16.3026 6.98949 15.3146 6.17849 15.0906 5.06249L14.8476 3.84649C14.7966 3.66149 14.5856 3.50049 14.3456 3.50049L10.1126 3.50049C9.87258 3.50049 9.66158 3.66149 9.60058 3.89249L9.36758 5.06249C9.14458 6.17849 8.15558 6.98949 7.01758 6.98949C6.60358 6.98949 6.26758 6.65349 6.26758 6.23949C6.26758 5.82549 6.60358 5.48949 7.01758 5.48949C7.44358 5.48949 7.81358 5.18549 7.89758 4.76749L8.14058 3.55149C8.38758 2.61949 9.19458 2.00049 10.1126 2.00049L14.3456 2.00049C15.2636 2.00049 16.0706 2.61949 16.3076 3.50649L16.5616 4.76749C16.6446 5.18549 17.0146 5.48949 17.4406 5.48949C17.8546 5.48949 18.1906 5.82549 18.1906 6.23949C18.1906 6.65349 17.8546 6.98949 17.4406 6.98949Z" fill="black"/>
</svg>
