<svg width="400" height="300" viewBox="0 0 400 300" fill="none" xmlns="http://www.w3.org/2000/svg">
<rect width="400" height="300" fill="#EAEAEA"/>
<path fill-rule="evenodd" clip-rule="evenodd" d="M322.993 160.017C322.993 159.379 323.51 158.862 324.148 158.862H327.857C328.494 158.862 329.011 159.379 329.011 160.017V169.044H333.846C334.483 169.044 335 169.561 335 170.198V173.209C335 173.846 334.483 174.363 333.846 174.363H329.011V189.579C329.011 190.217 328.494 190.734 327.857 190.734H324.148C323.51 190.734 322.993 190.217 322.993 189.579V160.017ZM300.583 160.266C300.583 159.629 301.1 159.112 301.738 159.112H305.696C306.334 159.112 306.851 159.629 306.851 160.266V164.167C306.851 165.873 307.124 167.513 307.671 169.085L307.673 169.09L307.674 169.094C308.253 170.627 309.038 172.026 310.027 173.289L310.029 173.291L310.031 173.293C311.055 174.556 312.266 175.647 313.662 176.567L313.667 176.57L313.671 176.573C314.756 177.244 315.918 177.769 317.156 178.147C317.703 178.314 318.081 178.794 318.081 179.33V181.688C318.081 182.42 317.427 182.931 316.771 182.749C315.933 182.516 315.1 182.226 314.272 181.88C312.86 181.289 311.532 180.6 310.286 179.813C309.04 179.026 307.875 178.157 306.794 177.206C305.711 176.222 304.779 175.224 303.997 174.213L303.675 173.798L303.376 174.229C301.743 176.58 299.635 178.592 297.046 180.263C294.95 181.59 292.658 182.562 290.17 183.18C289.503 183.345 288.854 182.825 288.854 182.099V179.804C288.854 179.245 289.267 178.747 289.853 178.589C291.073 178.26 292.228 177.753 293.316 177.07C294.782 176.15 296.045 175.024 297.104 173.692C298.195 172.362 299.047 170.878 299.66 169.243C300.276 167.603 300.583 165.91 300.583 164.167V160.266ZM292.847 188.915C292.847 188.277 293.364 187.76 294.002 187.76H297.711C298.348 187.76 298.865 188.277 298.865 188.915V196.488C298.865 197.125 299.382 197.642 300.02 197.642H328.855C329.492 197.642 330.009 198.159 330.009 198.797V201.308C330.009 201.946 329.492 202.463 328.855 202.463H294.772C293.709 202.463 292.847 201.601 292.847 200.538V188.915Z" fill="#D0D0D0"/>
<path fill-rule="evenodd" clip-rule="evenodd" d="M244.429 160.787C244.429 159.724 245.29 158.862 246.353 158.862H280.686C281.323 158.862 281.84 159.379 281.84 160.017V162.328C281.84 162.966 281.323 163.483 280.686 163.483H251.601C250.964 163.483 250.447 164 250.447 164.637V169.087C250.447 169.725 250.964 170.242 251.601 170.242H281.434C282.072 170.242 282.589 170.759 282.589 171.396V173.708C282.589 174.345 282.072 174.862 281.434 174.862H266.668V179.076H283.68C284.318 179.076 284.835 179.593 284.835 180.231V182.492C284.835 183.13 284.318 183.647 283.68 183.647H242.339C241.702 183.647 241.185 183.13 241.185 182.492V180.231C241.185 179.593 241.701 179.076 242.339 179.076H260.35V174.862H246.353C245.29 174.862 244.429 174.001 244.429 172.938V160.787ZM246.029 189.175C247.803 187.782 250.27 187.062 253.477 187.062H272.543C275.75 187.062 278.199 187.782 279.938 189.173L279.941 189.176L279.944 189.178C281.706 190.531 282.589 192.378 282.589 194.762C282.589 197.147 281.706 198.993 279.944 200.346L279.941 200.349L279.938 200.351C278.199 201.743 275.75 202.463 272.543 202.463H253.477C250.27 202.463 247.803 201.743 246.029 200.349L246.028 200.348C244.299 198.997 243.431 197.149 243.431 194.762C243.431 192.375 244.299 190.528 246.028 189.176L246.029 189.175ZM253.926 191.682C252.614 191.682 251.529 191.957 250.71 192.551C249.895 193.108 249.449 193.85 249.449 194.762C249.449 195.674 249.895 196.416 250.71 196.973C251.529 197.567 252.614 197.842 253.926 197.842H272.093C273.405 197.842 274.491 197.567 275.31 196.973C276.125 196.416 276.571 195.674 276.571 194.762C276.571 193.85 276.125 193.108 275.31 192.551C274.491 191.957 273.405 191.682 272.093 191.682H253.926Z" fill="#D0D0D0"/>
<path fill-rule="evenodd" clip-rule="evenodd" d="M197.504 160.395C197.504 159.757 198.021 159.24 198.659 159.24H202.367C203.005 159.24 203.522 159.757 203.522 160.395V165.079H227.65V160.395C227.65 159.757 228.167 159.24 228.804 159.24H232.513C233.151 159.24 233.668 159.757 233.668 160.395V179.604C233.668 180.667 232.806 181.529 231.743 181.529H199.428C198.366 181.529 197.504 180.667 197.504 179.604V160.395ZM227.65 169.9H203.522V175.554C203.522 176.192 204.039 176.708 204.677 176.708H226.495C227.133 176.708 227.65 176.192 227.65 175.554V169.9ZM193.761 187.146C193.761 186.509 194.278 185.992 194.915 185.992H236.256C236.894 185.992 237.411 186.509 237.411 187.146V189.807C237.411 190.445 236.894 190.962 236.256 190.962H218.745V200.987C218.745 201.625 218.228 202.142 217.59 202.142H213.582C212.944 202.142 212.427 201.625 212.427 200.987V190.962H194.915C194.278 190.962 193.761 190.445 193.761 189.807V187.146Z" fill="#D0D0D0"/>
<path fill-rule="evenodd" clip-rule="evenodd" d="M226.773 103.747C226.773 103.11 227.29 102.593 227.928 102.593H231.637C232.274 102.593 232.791 103.11 232.791 103.747V122.829C232.791 123.466 232.274 123.983 231.637 123.983H227.928C227.29 123.983 226.773 123.466 226.773 122.829V119.89H219.815V121.36C219.815 122.423 218.953 123.284 217.89 123.284H195.557C194.494 123.284 193.633 122.423 193.633 121.36V104.147C193.633 103.509 194.15 102.992 194.787 102.992H198.496C199.134 102.992 199.651 103.509 199.651 104.147V108.033H213.797V104.147C213.797 103.509 214.313 102.992 214.951 102.992H218.66C219.298 102.992 219.815 103.509 219.815 104.147V106.486H226.773V103.747ZM226.773 111.206H219.815V115.17H226.773V111.206ZM213.797 112.653H199.651V117.509C199.651 118.147 200.168 118.664 200.805 118.664H212.642C213.28 118.664 213.797 118.147 213.797 117.509V112.653ZM196.627 127.654C196.627 127.017 197.144 126.5 197.782 126.5H230.867C231.93 126.5 232.791 127.361 232.791 128.424V136.383C232.791 137.446 231.93 138.307 230.867 138.307H204.503C203.532 138.307 202.745 138.386 202.745 140.065C202.745 141.822 203.532 141.822 204.503 141.822H232.635C233.273 141.822 233.789 142.339 233.789 142.977V145.039C233.789 145.676 233.273 146.193 232.635 146.193H198.552C197.489 146.193 196.627 145.332 196.627 144.269V136.06C196.627 134.998 197.489 134.136 198.552 134.136H225.041C225.942 134.136 226.673 134.136 226.673 132.503C226.673 130.871 225.942 130.871 225.041 130.871H197.782C197.144 130.871 196.627 130.354 196.627 129.716V127.654Z" fill="#D0D0D0"/>
<path fill-rule="evenodd" clip-rule="evenodd" d="M275.585 103.747C275.585 103.11 276.102 102.593 276.74 102.593H280.449C281.086 102.593 281.603 103.11 281.603 103.747V122.829C281.603 123.466 281.086 123.983 280.449 123.983H276.74C276.102 123.983 275.585 123.466 275.585 122.829V119.89H268.627V121.36C268.627 122.423 267.765 123.284 266.702 123.284H244.369C243.306 123.284 242.445 122.423 242.445 121.36V104.147C242.445 103.509 242.962 102.992 243.599 102.992H247.308C247.946 102.992 248.463 103.509 248.463 104.147V108.033H262.609V104.147C262.609 103.509 263.125 102.992 263.763 102.992H267.472C268.11 102.992 268.627 103.509 268.627 104.147V106.486H275.585V103.747ZM275.585 111.206H268.627V115.17H275.585V111.206ZM262.609 112.653H248.463V117.509C248.463 118.147 248.98 118.664 249.617 118.664H261.454C262.092 118.664 262.609 118.147 262.609 117.509V112.653ZM245.439 127.654C245.439 127.017 245.956 126.5 246.594 126.5H279.679C280.742 126.5 281.603 127.361 281.603 128.424V136.383C281.603 137.446 280.742 138.307 279.679 138.307H253.315C252.344 138.307 251.557 138.307 251.557 140.065C251.557 141.785 252.344 141.822 253.315 141.822H281.447C282.085 141.822 282.601 142.339 282.601 142.977V145.039C282.601 145.676 282.085 146.193 281.447 146.193H247.364C246.301 146.193 245.439 145.332 245.439 144.269V136.06C245.439 134.998 246.301 134.136 247.364 134.136H273.853C274.754 134.136 275.485 134.136 275.485 132.503C275.485 130.871 274.754 130.871 273.853 130.871H246.594C245.956 130.871 245.439 130.354 245.439 129.716V127.654Z" fill="#D0D0D0"/>
<path d="M99.7353 114.921C100.929 110.711 96.5117 107.418 92.6336 109.446L67.8304 122.412C66.0906 123.322 65 125.122 65 127.085V197.189C65 200.102 67.3611 202.463 70.2735 202.463H165.197C168.11 202.463 170.471 200.102 170.471 197.189V127.085C170.471 125.122 169.38 123.322 167.641 122.412L120.179 97.6001C118.648 96.8 116.823 96.8 115.292 97.6001L107.966 101.43C104.985 102.989 104.203 106.908 106.517 109.349C119.201 122.732 135.232 132.531 152.881 137.697C157.168 138.952 158.723 144.731 155.641 147.965C144.005 160.177 135.467 175.065 130.772 191.269C129.524 195.58 123.7 197.135 120.467 194.022C108.361 182.368 93.5877 173.781 77.4641 169.061C73.1765 167.806 71.6222 162.028 74.704 158.794C86.4756 146.439 95.0772 131.345 99.7353 114.921Z" fill="#D6D6D6"/>
</svg>
