<svg width="40" height="40" viewBox="0 0 40 40" fill="none" xmlns="http://www.w3.org/2000/svg">
<path d="M14.4818 11.7095L13.7893 10.9881L14.4818 11.7095C14.7064 11.4939 14.8814 11.2382 15.0797 10.9483C15.093 10.9288 15.1065 10.9091 15.1201 10.8893L18.1853 6.4168C18.6389 5.75493 18.9415 5.31507 19.1966 5.00681C19.4495 4.70103 19.5713 4.63271 19.6217 4.61214C19.8642 4.51304 20.1358 4.51304 20.3783 4.61214C20.4287 4.63271 20.5505 4.70103 20.8034 5.00681C21.0585 5.31506 21.3611 5.75493 21.8147 6.4168L24.8799 10.8893C24.8935 10.9091 24.907 10.9288 24.9203 10.9483C25.1186 11.2382 25.2936 11.4939 25.5182 11.7095C25.7157 11.8991 25.9382 12.0607 26.1795 12.19C26.454 12.337 26.7512 12.4243 27.0882 12.5234C27.1109 12.53 27.1338 12.5368 27.1568 12.5436L32.3576 14.0767C33.1273 14.3035 33.6391 14.4554 34.0111 14.6027C34.3801 14.7488 34.4827 14.8436 34.5178 14.8851C34.687 15.0851 34.771 15.3435 34.7516 15.6047C34.7476 15.6589 34.7203 15.7959 34.5076 16.131C34.2933 16.4688 33.9685 16.8925 33.4792 17.5285L30.1728 21.8257C30.1581 21.8448 30.1436 21.8637 30.1291 21.8824C29.9147 22.1606 29.7256 22.406 29.5899 22.6862C29.4707 22.9326 29.3857 23.1942 29.3373 23.4636C29.2824 23.7701 29.2911 24.0798 29.3011 24.4309C29.3017 24.4545 29.3024 24.4783 29.3031 24.5024L29.4521 29.9224C29.4742 30.7245 29.4879 31.2582 29.4628 31.6575C29.4378 32.0536 29.3795 32.1804 29.3508 32.2267C29.2129 32.4494 28.9931 32.6091 28.7387 32.6714C28.6859 32.6844 28.5472 32.7007 28.1628 32.602C27.7753 32.5025 27.2719 32.3245 26.5159 32.0557L21.4072 30.2391C21.3846 30.231 21.3621 30.223 21.3398 30.2151C21.009 30.0971 20.7172 29.9931 20.4087 29.9507C20.1375 29.9134 19.8625 29.9134 19.5913 29.9507C19.2828 29.9931 18.991 30.0971 18.6602 30.2151C18.6379 30.223 18.6154 30.231 18.5928 30.2391L13.4841 32.0557C12.7281 32.3245 12.2247 32.5025 11.8372 32.602C11.4528 32.7007 11.3141 32.6844 11.2613 32.6714C11.0069 32.6091 10.7871 32.4494 10.6492 32.2267C10.6205 32.1804 10.5622 32.0536 10.5372 31.6575C10.5121 31.2582 10.5258 30.7245 10.5479 29.9224L10.6969 24.5024C10.6976 24.4783 10.6983 24.4545 10.6989 24.4309C10.7089 24.0798 10.7176 23.7701 10.6627 23.4636C10.6143 23.1942 10.5293 22.9326 10.4101 22.6862C10.2744 22.406 10.0853 22.1606 9.87088 21.8824C9.85644 21.8637 9.84189 21.8448 9.82723 21.8257L6.52083 17.5285C6.03153 16.8925 5.70671 16.4688 5.49235 16.131C5.27972 15.7959 5.25238 15.6589 5.24837 15.6047C5.22905 15.3435 5.313 15.0851 5.48219 14.8851C5.51731 14.8436 5.61992 14.7488 5.98891 14.6027C6.36088 14.4554 6.87274 14.3035 7.64239 14.0767L12.8432 12.5436C12.8662 12.5368 12.8891 12.53 12.9118 12.5234C13.2488 12.4243 13.546 12.337 13.8205 12.19C14.0618 12.0607 14.2843 11.8991 14.4818 11.7095Z" stroke="#D0D5DD" stroke-width="2"/>
</svg>
